<?xml version="1.0" encoding="UTF-8" standalone="no"?>
<!-- Created with Inkscape (http://www.inkscape.org/) -->

<svg
   width="210mm"
   height="297mm"
   viewBox="0 0 210 297"
   version="1.1"
   id="svg5"
   xmlns="http://www.w3.org/2000/svg"
   xmlns:svg="http://www.w3.org/2000/svg">
  <defs
     id="defs2" />
  <g
     id="layer1">
    <g
       id="g838"
       transform="matrix(0.35277778,0,0,0.35277778,-236.56696,-64.821133)">
      <path
         d="m 471.31,260.4 c -42.637,32.176 -80.137,70.641 -111.23,114.08 -5.5195,-7.25 -11.199,-14.234 -17.039,-20.949 -9.5117,-10.961 -19.688,-21.324 -30.473,-31.035 -2.4141,-2.1797 -5.5977,-3.3047 -8.8438,-3.1289 -3.2461,0.17578 -6.2891,1.6328 -8.4531,4.0586 -2.168,2.4219 -3.2812,5.6094 -3.0938,8.8555 0.19141,3.2461 1.6641,6.2812 4.0938,8.4375 10.043,9.043 19.523,18.695 28.379,28.902 9.1875,10.578 17.809,21.629 25.836,33.109 3.8711,5.5195 11.48,6.8594 17.004,2.9961 0.32422,-0.22656 3.2773,-3.3828 3.2812,-3.3867 v -0.004 c 15.242,-23.344 32.566,-45.266 51.758,-65.492 19.359,-20.73 40.523,-39.699 63.246,-56.672 5.4531,-4 6.6367,-11.66 2.6445,-17.117 -3.9961,-5.457 -11.656,-6.6445 -17.113,-2.6523 z"
         id="path824" />
      <path
         d="m 542.33,441.58 c 16.648,6.625 24.773,25.488 18.148,42.137 -6.625,16.645 -25.488,24.77 -42.137,18.145 -16.645,-6.625 -24.77,-25.488 -18.145,-42.137 6.625,-16.645 25.488,-24.77 42.133,-18.145"
         id="path826" />
      <path
         d="m 577.48,353.11 c 16.691,6.6445 24.84,25.559 18.199,42.254 -6.6406,16.691 -25.559,24.84 -42.254,18.199 -16.691,-6.6445 -24.84,-25.559 -18.199,-42.254 6.6445,-16.691 25.559,-24.84 42.254,-18.199"
         id="path828" />
      <path
         d="m 566.21,261.75 c 14.953,5.9531 22.25,22.898 16.301,37.852 -5.9531,14.953 -22.898,22.254 -37.852,16.301 -14.953,-5.9492 -22.254,-22.898 -16.301,-37.852 5.9492,-14.953 22.898,-22.25 37.852,-16.301"
         id="path830" />
      <path
         d="m 511.11,188.7 c 11.641,4.6328 17.32,17.82 12.688,29.461 -4.6289,11.641 -17.82,17.32 -29.461,12.688 -11.637,-4.6289 -17.32,-17.82 -12.688,-29.461 4.6289,-11.637 17.82,-17.32 29.461,-12.688"
         id="path832" />
      <path
         d="m 424.6,150.85 c 7.4336,2.957 11.062,11.383 8.1055,18.816 -2.957,7.4336 -11.383,11.066 -18.816,8.1094 -7.4336,-2.957 -11.062,-11.383 -8.1055,-18.816 2.957,-7.4375 11.379,-11.066 18.816,-8.1094"
         id="path834" />
      <path
         d="m 480.03,512.23 -96.785,-12.461 c -2.1992,-0.28125 -4.3828,0.62891 -5.7305,2.3945 -1.3438,1.7617 -1.6445,4.1094 -0.78906,6.1562 l 10.402,24.914 c -0.82422,0.004 -1.6484,0.0352 -2.4727,0.0273 -44.555,-0.0703 -87.664,-15.812 -121.78,-44.473 -34.113,-28.656 -57.059,-68.406 -64.812,-112.28 -7.7539,-43.875 0.17578,-89.078 22.402,-127.7 22.223,-38.613 57.324,-68.18 99.156,-83.516 2.1602,-0.75 3.7344,-2.625 4.0977,-4.8789 0.26562,-1.9492 -0.45312,-3.9023 -1.9141,-5.2148 -1.4609,-1.3164 -3.4805,-1.8203 -5.3906,-1.3555 -46.469,11.48 -87.738,38.23 -117.19,75.969 -29.449,37.734 -45.375,84.27 -45.215,132.14 0.28516,29.508 6.4766,58.66 18.211,85.738 11.992,27.23 29.484,51.691 51.379,71.84 21.895,20.149 47.719,35.555 75.852,45.246 27.957,9.4922 57.539,13.242 86.98,11.031 5.9062,-0.44531 11.77,-1.1523 17.582,-2.125 l 10.305,24.676 v 0.004 c 0.85547,2.0469 2.7383,3.4844 4.9375,3.7656 2.1992,0.28516 4.3828,-0.62891 5.7266,-2.3906 l 59.188,-77.59 c 1.3438,-1.7617 1.6445,-4.1094 0.79297,-6.1562 -0.85547,-2.0469 -2.7383,-3.4805 -4.9375,-3.7656 z"
         id="path836" />
    </g>
  </g>
</svg>
